<svg xmlns="http://www.w3.org/2000/svg" xmlns:xlink="http://www.w3.org/1999/xlink" width="136" zoomAndPan="magnify" viewBox="0 0 102 30.000001" height="40" preserveAspectRatio="xMidYMid meet" version="1.0"><defs><g/><clipPath id="0fb657dfdf"><path d="M 2.699219 0.726562 L 30.28125 0.726562 L 30.28125 28.304688 L 2.699219 28.304688 Z M 2.699219 0.726562 " clip-rule="nonzero"/></clipPath><clipPath id="16e50fc0ec"><path d="M 4.808594 2.832031 L 28.035156 2.832031 L 28.035156 26.058594 L 4.808594 26.058594 Z M 4.808594 2.832031 " clip-rule="nonzero"/></clipPath><clipPath id="49690b74f9"><path d="M 6.414062 8.136719 L 26.734375 8.136719 L 26.734375 21 L 6.414062 21 Z M 6.414062 8.136719 " clip-rule="nonzero"/></clipPath></defs><g fill="#ffffff" fill-opacity="1"><g transform="translate(44.065146, 12.26132)"><g><path d="M 2.984375 -2.96875 L 2.1875 -2.109375 L 2.1875 0 L 0.65625 0 L 0.65625 -7.40625 L 2.1875 -7.40625 L 2.1875 -4.046875 L 2.859375 -4.96875 L 4.75 -7.40625 L 6.625 -7.40625 L 4 -4.109375 L 6.703125 0 L 4.890625 0 Z M 2.984375 -2.96875 "/></g></g></g><g fill="#ffffff" fill-opacity="1"><g transform="translate(51.928714, 12.26132)"><g><path d="M 5.125 -3.21875 L 2.1875 -3.21875 L 2.1875 -1.21875 L 5.625 -1.21875 L 5.625 0 L 0.65625 0 L 0.65625 -7.40625 L 5.625 -7.40625 L 5.625 -6.171875 L 2.1875 -6.171875 L 2.1875 -4.40625 L 5.125 -4.40625 Z M 5.125 -3.21875 "/></g></g></g><g fill="#ffffff" fill-opacity="1"><g transform="translate(59.039449, 12.26132)"><g><path d="M 3.21875 -4.078125 L 4.765625 -7.40625 L 6.421875 -7.40625 L 4 -2.6875 L 4 0 L 2.4375 0 L 2.4375 -2.6875 L 0.015625 -7.40625 L 1.6875 -7.40625 Z M 3.21875 -4.078125 "/></g></g></g><g fill="#ffffff" fill-opacity="1"><g transform="translate(66.730069, 12.26132)"><g><path d="M 2.984375 -2.96875 L 2.1875 -2.109375 L 2.1875 0 L 0.65625 0 L 0.65625 -7.40625 L 2.1875 -7.40625 L 2.1875 -4.046875 L 2.859375 -4.96875 L 4.75 -7.40625 L 6.625 -7.40625 L 4 -4.109375 L 6.703125 0 L 4.890625 0 Z M 2.984375 -2.96875 "/></g></g></g><g fill="#ffffff" fill-opacity="1"><g transform="translate(74.593637, 12.26132)"><g><path d="M 6.75 -3.53125 C 6.75 -2.800781 6.617188 -2.160156 6.359375 -1.609375 C 6.097656 -1.066406 5.726562 -0.644531 5.25 -0.34375 C 4.769531 -0.0390625 4.222656 0.109375 3.609375 0.109375 C 2.992188 0.109375 2.441406 -0.0351562 1.953125 -0.328125 C 1.472656 -0.628906 1.097656 -1.050781 0.828125 -1.59375 C 0.566406 -2.144531 0.4375 -2.78125 0.4375 -3.5 L 0.4375 -3.859375 C 0.4375 -4.585938 0.566406 -5.226562 0.828125 -5.78125 C 1.085938 -6.34375 1.457031 -6.769531 1.9375 -7.0625 C 2.425781 -7.363281 2.976562 -7.515625 3.59375 -7.515625 C 4.207031 -7.515625 4.753906 -7.363281 5.234375 -7.0625 C 5.710938 -6.769531 6.082031 -6.34375 6.34375 -5.78125 C 6.613281 -5.226562 6.75 -4.59375 6.75 -3.875 Z M 5.203125 -3.875 C 5.203125 -4.644531 5.0625 -5.234375 4.78125 -5.640625 C 4.5 -6.046875 4.101562 -6.25 3.59375 -6.25 C 3.082031 -6.25 2.6875 -6.046875 2.40625 -5.640625 C 2.125 -5.242188 1.984375 -4.660156 1.984375 -3.890625 L 1.984375 -3.53125 C 1.984375 -2.78125 2.117188 -2.195312 2.390625 -1.78125 C 2.671875 -1.363281 3.078125 -1.15625 3.609375 -1.15625 C 4.117188 -1.15625 4.507812 -1.351562 4.78125 -1.75 C 5.0625 -2.15625 5.203125 -2.742188 5.203125 -3.515625 Z M 5.203125 -3.875 "/></g></g></g><g fill="#ffffff" fill-opacity="1"><g transform="translate(33.976219, 22.533682)"><g><path d="M 6.234375 -6.171875 L 3.96875 -6.171875 L 3.96875 0 L 2.4375 0 L 2.4375 -6.171875 L 0.203125 -6.171875 L 0.203125 -7.40625 L 6.234375 -7.40625 Z M 6.234375 -6.171875 "/></g></g></g><g fill="#ffffff" fill-opacity="1"><g transform="translate(41.671929, 22.533682)"><g><path d="M 5.125 -3.21875 L 2.1875 -3.21875 L 2.1875 -1.21875 L 5.625 -1.21875 L 5.625 0 L 0.65625 0 L 0.65625 -7.40625 L 5.625 -7.40625 L 5.625 -6.171875 L 2.1875 -6.171875 L 2.1875 -4.40625 L 5.125 -4.40625 Z M 5.125 -3.21875 "/></g></g></g><g fill="#ffffff" fill-opacity="1"><g transform="translate(48.782663, 22.533682)"><g><path d="M 3.40625 -2.71875 L 2.1875 -2.71875 L 2.1875 0 L 0.65625 0 L 0.65625 -7.40625 L 3.421875 -7.40625 C 4.296875 -7.40625 4.96875 -7.207031 5.4375 -6.8125 C 5.914062 -6.425781 6.15625 -5.878906 6.15625 -5.171875 C 6.15625 -4.660156 6.046875 -4.238281 5.828125 -3.90625 C 5.609375 -3.570312 5.273438 -3.300781 4.828125 -3.09375 L 6.4375 -0.078125 L 6.4375 0 L 4.796875 0 Z M 2.1875 -3.953125 L 3.421875 -3.953125 C 3.804688 -3.953125 4.101562 -4.046875 4.3125 -4.234375 C 4.519531 -4.429688 4.625 -4.703125 4.625 -5.046875 C 4.625 -5.398438 4.523438 -5.675781 4.328125 -5.875 C 4.128906 -6.070312 3.828125 -6.171875 3.421875 -6.171875 L 2.1875 -6.171875 Z M 2.1875 -3.953125 "/></g></g></g><g fill="#ffffff" fill-opacity="1"><g transform="translate(56.681843, 22.533682)"><g><path d="M 4.84375 -1.53125 L 2.171875 -1.53125 L 1.65625 0 L 0.03125 0 L 2.796875 -7.40625 L 4.203125 -7.40625 L 6.984375 0 L 5.359375 0 Z M 2.578125 -2.765625 L 4.4375 -2.765625 L 3.5 -5.53125 Z M 2.578125 -2.765625 "/></g></g></g><g fill="#ffffff" fill-opacity="1"><g transform="translate(64.942175, 22.533682)"><g><path d="M 2.1875 -2.609375 L 2.1875 0 L 0.65625 0 L 0.65625 -7.40625 L 3.546875 -7.40625 C 4.109375 -7.40625 4.597656 -7.300781 5.015625 -7.09375 C 5.441406 -6.894531 5.765625 -6.609375 5.984375 -6.234375 C 6.210938 -5.859375 6.328125 -5.429688 6.328125 -4.953125 C 6.328125 -4.234375 6.078125 -3.660156 5.578125 -3.234375 C 5.085938 -2.816406 4.40625 -2.609375 3.53125 -2.609375 Z M 2.1875 -3.84375 L 3.546875 -3.84375 C 3.953125 -3.84375 4.257812 -3.9375 4.46875 -4.125 C 4.6875 -4.320312 4.796875 -4.597656 4.796875 -4.953125 C 4.796875 -5.304688 4.6875 -5.59375 4.46875 -5.8125 C 4.257812 -6.039062 3.96875 -6.160156 3.59375 -6.171875 L 2.1875 -6.171875 Z M 2.1875 -3.84375 "/></g></g></g><g fill="#ffffff" fill-opacity="1"><g transform="translate(72.912567, 22.533682)"><g><path d="M 2.28125 0 L 0.765625 0 L 0.765625 -7.40625 L 2.28125 -7.40625 Z M 2.28125 0 "/></g></g></g><g fill="#ffffff" fill-opacity="1"><g transform="translate(77.200182, 22.533682)"><g><path d="M 4.84375 -1.53125 L 2.171875 -1.53125 L 1.65625 0 L 0.03125 0 L 2.796875 -7.40625 L 4.203125 -7.40625 L 6.984375 0 L 5.359375 0 Z M 2.578125 -2.765625 L 4.4375 -2.765625 L 3.5 -5.53125 Z M 2.578125 -2.765625 "/></g></g></g><g fill="#ffffff" fill-opacity="1"><g transform="translate(85.460514, 22.533682)"><g><path d="M 4.5 -1.9375 C 4.5 -2.226562 4.394531 -2.453125 4.1875 -2.609375 C 3.988281 -2.765625 3.625 -2.925781 3.09375 -3.09375 C 2.570312 -3.269531 2.15625 -3.441406 1.84375 -3.609375 C 1 -4.054688 0.578125 -4.664062 0.578125 -5.4375 C 0.578125 -5.84375 0.6875 -6.203125 0.90625 -6.515625 C 1.132812 -6.828125 1.460938 -7.070312 1.890625 -7.25 C 2.316406 -7.425781 2.789062 -7.515625 3.3125 -7.515625 C 3.84375 -7.515625 4.3125 -7.414062 4.71875 -7.21875 C 5.132812 -7.03125 5.457031 -6.757812 5.6875 -6.40625 C 5.914062 -6.0625 6.03125 -5.664062 6.03125 -5.21875 L 4.515625 -5.21875 C 4.515625 -5.5625 4.40625 -5.828125 4.1875 -6.015625 C 3.976562 -6.203125 3.675781 -6.296875 3.28125 -6.296875 C 2.914062 -6.296875 2.628906 -6.21875 2.421875 -6.0625 C 2.210938 -5.90625 2.109375 -5.695312 2.109375 -5.4375 C 2.109375 -5.195312 2.226562 -4.992188 2.46875 -4.828125 C 2.707031 -4.660156 3.066406 -4.507812 3.546875 -4.375 C 4.410156 -4.113281 5.039062 -3.785156 5.4375 -3.390625 C 5.832031 -3.003906 6.03125 -2.523438 6.03125 -1.953125 C 6.03125 -1.316406 5.785156 -0.8125 5.296875 -0.4375 C 4.816406 -0.0703125 4.164062 0.109375 3.34375 0.109375 C 2.78125 0.109375 2.265625 0.00390625 1.796875 -0.203125 C 1.328125 -0.421875 0.96875 -0.707031 0.71875 -1.0625 C 0.46875 -1.425781 0.34375 -1.847656 0.34375 -2.328125 L 1.890625 -2.328125 C 1.890625 -1.515625 2.375 -1.109375 3.34375 -1.109375 C 3.707031 -1.109375 3.988281 -1.179688 4.1875 -1.328125 C 4.394531 -1.472656 4.5 -1.675781 4.5 -1.9375 Z M 4.5 -1.9375 "/></g></g></g><g clip-path="url(#0fb657dfdf)"><path fill="#ffffff" d="M 30.277344 14.515625 C 30.277344 15.421875 30.191406 16.316406 30.015625 17.207031 C 29.835938 18.09375 29.574219 18.957031 29.230469 19.792969 C 28.882812 20.628906 28.457031 21.425781 27.953125 22.175781 C 27.453125 22.929688 26.878906 23.625 26.238281 24.265625 C 25.597656 24.90625 24.902344 25.480469 24.148438 25.980469 C 23.398438 26.484375 22.601562 26.910156 21.765625 27.257812 C 20.929688 27.601562 20.066406 27.863281 19.179688 28.042969 C 18.292969 28.21875 17.394531 28.304688 16.488281 28.304688 C 15.582031 28.304688 14.6875 28.21875 13.796875 28.042969 C 12.910156 27.863281 12.046875 27.601562 11.210938 27.257812 C 10.375 26.910156 9.582031 26.484375 8.828125 25.980469 C 8.074219 25.480469 7.378906 24.90625 6.738281 24.265625 C 6.097656 23.625 5.527344 22.929688 5.023438 22.175781 C 4.519531 21.425781 4.09375 20.628906 3.75 19.792969 C 3.402344 18.957031 3.140625 18.09375 2.964844 17.207031 C 2.785156 16.316406 2.699219 15.421875 2.699219 14.515625 C 2.699219 13.609375 2.785156 12.714844 2.964844 11.824219 C 3.140625 10.9375 3.402344 10.074219 3.75 9.238281 C 4.09375 8.402344 4.519531 7.605469 5.023438 6.855469 C 5.527344 6.101562 6.097656 5.40625 6.738281 4.765625 C 7.378906 4.125 8.074219 3.554688 8.828125 3.050781 C 9.582031 2.546875 10.375 2.121094 11.210938 1.777344 C 12.046875 1.429688 12.910156 1.167969 13.796875 0.992188 C 14.6875 0.8125 15.582031 0.726562 16.488281 0.726562 C 17.394531 0.726562 18.292969 0.8125 19.179688 0.992188 C 20.066406 1.167969 20.929688 1.429688 21.765625 1.777344 C 22.601562 2.121094 23.398438 2.546875 24.148438 3.050781 C 24.902344 3.554688 25.597656 4.125 26.238281 4.765625 C 26.878906 5.40625 27.453125 6.101562 27.953125 6.855469 C 28.457031 7.605469 28.882812 8.402344 29.230469 9.238281 C 29.574219 10.074219 29.835938 10.9375 30.015625 11.824219 C 30.191406 12.714844 30.277344 13.609375 30.277344 14.515625 Z M 30.277344 14.515625 " fill-opacity="1" fill-rule="nonzero"/></g><g clip-path="url(#16e50fc0ec)"><path fill="#69d0b3" d="M 28.160156 14.507812 C 28.160156 15.273438 28.085938 16.03125 27.9375 16.785156 C 27.785156 17.535156 27.566406 18.265625 27.273438 18.972656 C 26.976562 19.683594 26.617188 20.355469 26.191406 20.992188 C 25.765625 21.628906 25.28125 22.21875 24.742188 22.761719 C 24.199219 23.304688 23.609375 23.789062 22.972656 24.214844 C 22.335938 24.640625 21.660156 25 20.953125 25.292969 C 20.246094 25.585938 19.515625 25.808594 18.761719 25.957031 C 18.011719 26.105469 17.253906 26.179688 16.484375 26.179688 C 15.71875 26.179688 14.960938 26.105469 14.207031 25.957031 C 13.457031 25.808594 12.726562 25.585938 12.015625 25.292969 C 11.308594 25 10.636719 24.640625 10 24.214844 C 9.363281 23.789062 8.773438 23.304688 8.230469 22.761719 C 7.6875 22.21875 7.203125 21.628906 6.777344 20.992188 C 6.351562 20.355469 5.992188 19.683594 5.699219 18.972656 C 5.40625 18.265625 5.183594 17.535156 5.035156 16.785156 C 4.886719 16.03125 4.808594 15.273438 4.808594 14.507812 C 4.808594 13.738281 4.886719 12.980469 5.035156 12.230469 C 5.183594 11.476562 5.40625 10.746094 5.699219 10.039062 C 5.992188 9.332031 6.351562 8.65625 6.777344 8.019531 C 7.203125 7.382812 7.6875 6.792969 8.230469 6.25 C 8.773438 5.707031 9.363281 5.226562 10 4.796875 C 10.636719 4.371094 11.308594 4.011719 12.015625 3.71875 C 12.726562 3.425781 13.457031 3.203125 14.207031 3.054688 C 14.960938 2.90625 15.71875 2.832031 16.484375 2.832031 C 17.253906 2.832031 18.011719 2.90625 18.761719 3.054688 C 19.515625 3.203125 20.246094 3.425781 20.953125 3.71875 C 21.660156 4.011719 22.335938 4.371094 22.972656 4.796875 C 23.609375 5.226562 24.199219 5.707031 24.742188 6.25 C 25.28125 6.792969 25.765625 7.382812 26.191406 8.019531 C 26.617188 8.65625 26.976562 9.332031 27.273438 10.039062 C 27.566406 10.746094 27.785156 11.476562 27.9375 12.230469 C 28.085938 12.980469 28.160156 13.738281 28.160156 14.507812 Z M 28.160156 14.507812 " fill-opacity="1" fill-rule="nonzero"/></g><g clip-path="url(#49690b74f9)"><path fill="#ffffff" d="M 19.113281 13.050781 C 19.113281 15.09375 18.09375 16.890625 16.53125 17.964844 C 14.972656 16.890625 13.945312 15.09375 13.945312 13.050781 C 13.945312 11.011719 14.96875 9.214844 16.53125 8.136719 C 18.09375 9.214844 19.113281 11.011719 19.113281 13.050781 Z M 6.835938 14.929688 C 6.691406 14.96875 6.550781 15.015625 6.414062 15.070312 C 6.457031 15.34375 6.515625 15.625 6.597656 15.902344 C 7.53125 19.066406 10.847656 20.871094 14.007812 19.941406 C 14.3125 19.851562 14.601562 19.738281 14.878906 19.609375 C 14.851562 19.492188 14.820312 19.375 14.785156 19.257812 C 13.789062 15.867188 10.226562 13.925781 6.835938 14.929688 Z M 26.550781 15.132812 C 26.507812 15.121094 26.46875 15.105469 26.425781 15.09375 C 23.0625 13.988281 19.449219 15.816406 18.347656 19.179688 C 18.304688 19.304688 18.265625 19.433594 18.234375 19.5625 C 18.421875 19.644531 18.613281 19.722656 18.808594 19.78125 C 21.941406 20.8125 25.316406 19.101562 26.339844 15.972656 C 26.433594 15.695312 26.503906 15.414062 26.550781 15.132812 Z M 26.550781 15.132812 " fill-opacity="1" fill-rule="nonzero"/></g></svg>
